<?xml version="1.0" encoding="utf-8"?>
<svg xmlns="http://www.w3.org/2000/svg" viewBox="0 0 500 500" xmlns:bx="https://boxy-svg.com" width="500px" height="500px"><defs/><g transform="matrix(1.953125, 0, 0, 1.960784, -238.281265, -240.196075)"><path d="M 206 122.5 C 182.855 122.5 162.085 131.665 146.986 146.623 C 131.888 161.58 122.46 182.33 122 205.5 C 122 212 122 234 122 254.375 C 122 274.75 122 293.5 122 293.5 C 122.19 316.055 131.68 336.918 146.753 352.21 C 161.825 367.503 182.48 377.225 205 377.5 L 244 377.5 L 283 377.5 C 311.525 377 334.653 367.773 350.96 353.159 C 367.268 338.545 376.755 318.545 378 296.5 L 378 251 L 378 205.5 C 377.58 183.215 368.423 162.465 353.699 147.286 C 338.975 132.108 318.685 122.5 296 122.5 L 206 122.5 Z" stroke="None" fill="#0F1E2F"/><path d="M 201 211.5 C 204.21 206.655 205.9 198.87 208.596 191.718 C 211.293 184.565 214.995 178.045 222.23 175.73 C 229.465 173.415 234.75 179.108 239.055 186.254 C 243.36 193.4 246.685 202 250 205.5 C 253.67 201.1 257.245 192.628 261.865 185.616 C 266.485 178.605 272.15 173.055 280 174.5 C 287.85 175.945 291.412 183.248 294.231 191.163 C 297.05 199.078 299.125 207.605 304 211.5 C 306.265 203.45 308.36 196.723 310.935 190.09 C 313.51 183.458 316.565 176.92 320.75 169.25 C 324.94 161.585 334.562 159.12 342.11 160.838 C 349.657 162.555 355.13 168.455 351.02 177.52 C 346.91 186.585 344.81 193.738 343.037 200.798 C 341.265 207.858 339.82 214.825 337.02 223.52 C 334.225 232.22 331.993 239.723 330.073 247.296 C 328.153 254.87 326.545 262.515 325 271.5 C 312.225 328.41 308.325 334.853 302.221 338.749 C 296.118 342.645 287.81 343.995 278 343.5 C 268.185 343 258.145 342.783 248.12 342.758 C 238.095 342.733 228.085 342.9 218.33 343.17 C 208.575 343.44 202.065 340.188 197.466 334.776 C 192.868 329.365 190.18 321.795 188.07 313.43 C 185.965 305.06 184.015 297.563 181.961 290.136 C 179.908 282.71 177.75 275.355 175.23 267.27 C 172.71 259.185 170.423 251.683 168.256 244.105 C 166.09 236.528 164.045 228.875 162.01 220.49 C 159.975 212.11 157.325 205.263 154.66 198.283 C 151.995 191.303 149.315 184.19 147.22 175.28 C 145.13 166.365 151.865 161.658 160.134 160.904 C 168.403 160.15 178.205 163.35 182.25 170.25 C 186.295 177.15 189.625 183.76 192.623 190.496 C 195.62 197.233 198.285 204.095 201 211.5 Z" stroke="None" fill="#EFF8F8"/><path d="M 282.955 294.819 C 278.465 302.269 276.745 306.669 274.185 316.049 C 271.625 325.429 281.985 331.319 290.155 327.019 C 309.405 277.509 311.735 269.139 313.865 261.729 C 329.985 210.449 333.605 200.309 335.205 195.069 C 336.805 189.839 344.225 176.579 339.185 174.049 C 331.435 170.159 322.005 177.449 319.505 184.369" fill="#0F1E2F" fill-opacity="1.00" stroke="None"/><path d="M 233.441 235.18 C 223.601 267.8 224.991 278.48 219.361 284.09 C 213.721 289.71 209.381 275.76 207.421 269.2 C 188.401 212.43 189.301 209.41 184.221 198.4 C 179.141 187.4 173.691 160.21 155.441 169.18 C 159.641 186.39 165.711 201.79 170.661 218.96 C 175.621 236.12 180.551 251.33 185.661 268.96 C 190.781 286.58 195.331 299.21 200.521 318.1 C 205.701 337 230.541 325.86 244.761 321.5 C 258.991 317.14 277.811 302.2 271.221 285.4 C 264.621 268.61 262.221 253.61 255.441 237.18 C 252.099 241.965 249.794 249.526 244.441 252.18 C 240.585 246.688 236.885 240.608 233.441 235.18 Z" fill="#0F1E2F" fill-opacity="1.00" stroke="None"/></g></svg>